<?xml version="1.0" encoding="utf-8"?><svg viewBox="0 0 800 800" xmlns="http://www.w3.org/2000/svg" xmlns:xlink="http://www.w3.org/1999/xlink"><style>:root>svg{display:none}:root>svg:target{display:block}</style><svg viewBox="0 0 24 24" id="arrow-right" xmlns="http://www.w3.org/2000/svg"><path d="M17.92 11.62a1.001 1.001 0 0 0-.21-.33l-5-5a1.003 1.003 0 1 0-1.42 1.42l3.3 3.29H7a1 1 0 0 0 0 2h7.59l-3.3 3.29a1.002 1.002 0 0 0 .325 1.639 1 1 0 0 0 1.095-.219l5-5a1 1 0 0 0 .21-.33 1 1 0 0 0 0-.76Z"/></svg><svg viewBox="0 0 20 18" id="cart2" xmlns="http://www.w3.org/2000/svg"><path d="M19.152 6.254h-4.149L12.676.924a.586.586 0 1 0-1.074.47l2.122 4.86H6.276l2.122-4.86a.586.586 0 0 0-1.074-.47l-2.327 5.33H.847c-.542 0-.945.492-.826 1.009l2.185 9.517c.087.378.43.646.827.646h13.934c.397 0 .74-.268.827-.646l2.185-9.517c.119-.517-.284-1.009-.827-1.009ZM5.107 8.051a.586.586 0 0 1-.537-.82l.44-1.008h1.28L5.643 7.7a.586.586 0 0 1-.537.351Zm1.963 6.25a.586.586 0 1 1-1.172 0v-4.297a.586.586 0 1 1 1.172 0v4.297Zm3.516 0a.586.586 0 0 1-1.172 0v-4.297a.586.586 0 1 1 1.172 0v4.297Zm3.516 0a.586.586 0 0 1-1.172 0v-4.297a.586.586 0 0 1 1.172 0v4.297Zm1.025-6.299a.583.583 0 0 1-.771-.302l-.645-1.477h1.278l.44 1.008a.586.586 0 0 1-.302.771Z"/></svg><svg viewBox="0 0 8 14" id="icon-arrow-left" xmlns="http://www.w3.org/2000/svg"><path d="m.423 7.424 5.563 5.746a1 1 0 1 0 1.444-1.386L2.566 6.701l5.033-4.865a1 1 0 0 0 .024-1.41 1 1 0 0 0-.705-.312 1 1 0 0 0-.715.288L.448 5.955a1 1 0 0 0-.025 1.47Z"/></svg><svg viewBox="0 0 8 14" id="icon-arrow-right" xmlns="http://www.w3.org/2000/svg"><path d="M7.37 5.946 1.71.296a1 1 0 1 0-1.42 1.41l4.95 5-4.95 4.95a1 1 0 0 0 0 1.41 1 1 0 0 0 .71.3 1.003 1.003 0 0 0 .71-.3l5.66-5.65a1 1 0 0 0 0-1.47Z"/></svg><svg viewBox="0 0 24 24" id="icon-cart-empty" xmlns="http://www.w3.org/2000/svg"><path d="M7.5 18a1.5 1.5 0 1 1 0 3 1.5 1.5 0 0 1 0-3ZM16.5 18a1.5 1.5 0 1 1 0 3 1.5 1.5 0 0 1 0-3ZM2.261 3.092l.249-.708-.249.708Zm-.012-.8a.75.75 0 1 0-.498 1.416l.498-1.416Zm2.337 2.031.62-.423-.62.423Zm1.302 10.263-.545.516.545-.516Zm14.77-4.703.734.151.001-.004-.735-.147Zm-.5 2.425.735.15-.735-.15Zm.576-5.61-.594.456.595-.457Zm-1.6 8.352-.474-.581.474.581ZM5.708 9.76V7.038h-1.5V9.76h1.5ZM2.51 2.384l-.261-.092-.498 1.416.261.091.498-1.415Zm8.428 13.866h5.302v-1.5h-5.302v1.5Zm-5.23-9.212c0-.707.001-1.297-.05-1.776-.055-.497-.171-.95-.453-1.362l-1.238.846c.09.132.16.314.199.677.041.38.042.875.042 1.615h1.5ZM2.012 3.8c.668.235 1.107.39 1.43.55.303.148.437.268.525.397L5.205 3.9c-.284-.416-.662-.682-1.103-.899-.42-.206-.958-.394-1.592-.617L2.012 3.8ZM4.208 9.76c0 1.453.014 2.5.15 3.3.147.854.44 1.466.985 2.042l1.089-1.032c-.32-.338-.493-.668-.595-1.263-.11-.65-.129-1.558-.129-3.047h-1.5Zm6.73 4.99c-1.417 0-2.4-.002-3.141-.107-.715-.101-1.092-.285-1.365-.573l-1.089 1.032c.594.627 1.347.9 2.243 1.026.87.124 1.98.122 3.351.122v-1.5Zm-5.98-7.88h12.13v-1.5H4.959v1.5Zm14.965 2.861-.5 2.425 1.47.303.5-2.425-1.47-.303ZM17.09 6.87c.856 0 1.61.001 2.205.067.295.034.517.08.672.134.161.057.187.1.174.083l1.189-.914c-.235-.306-.565-.479-.866-.584a4.616 4.616 0 0 0-1.003-.21c-.695-.077-1.543-.076-2.371-.076v1.5Zm4.304 3.16c.17-.848.313-1.56.348-2.13.037-.586-.03-1.164-.412-1.66l-1.189.914c.062.081.13.226.104.654-.027.444-.144 1.037-.322 1.928l1.471.294Zm-5.153 6.22c.762 0 1.401.001 1.917-.062.535-.065 1.024-.209 1.45-.556l-.947-1.163c-.125.102-.303.184-.686.23-.403.05-.934.051-1.734.051v1.5Zm3.184-4.094c-.162.783-.27 1.303-.4 1.688-.123.366-.239.523-.364.625l.947 1.163c.427-.348.666-.797.838-1.309.166-.492.294-1.118.448-1.864l-1.47-.303Z"/></svg><svg viewBox="0 0 20 20" id="icon-cart-empty2" xmlns="http://www.w3.org/2000/svg"><g clip-path="url(#fa)"><path d="M19.703 7.229a1.382 1.382 0 0 0-1.087-.521h-3.852l-2.088-4.783a.586.586 0 1 0-1.074.47l1.883 4.313h-6.97l1.883-4.314a.586.586 0 0 0-1.074-.469L5.236 6.708H1.384c-.427 0-.823.19-1.087.521a1.35 1.35 0 0 0-.263 1.148l2.057 8.984a1.373 1.373 0 0 0 1.35 1.065h13.118c.651 0 1.206-.438 1.35-1.065l2.056-8.984a1.35 1.35 0 0 0-.262-1.148ZM16.56 17.254H3.441a.21.21 0 0 1-.207-.155L1.177 8.115a.179.179 0 0 1 .036-.156.213.213 0 0 1 .171-.08h3.34l-.153.352a.586.586 0 0 0 1.073.47l.359-.821h7.994l.359.82a.586.586 0 1 0 1.074-.469l-.154-.351h3.34c.093 0 .147.05.17.08a.18.18 0 0 1 .037.155l-2.057 8.984a.21.21 0 0 1-.207.155Z"/><path d="M19.703 7.229a1.382 1.382 0 0 0-1.087-.521h-3.852l-2.088-4.783a.586.586 0 1 0-1.074.47l1.883 4.313h-6.97l1.883-4.314a.586.586 0 0 0-1.074-.469L5.236 6.708H1.384c-.427 0-.823.19-1.087.521a1.35 1.35 0 0 0-.263 1.148l2.057 8.984a1.373 1.373 0 0 0 1.35 1.065h13.118c.651 0 1.206-.438 1.35-1.065l2.056-8.984a1.35 1.35 0 0 0-.262-1.148ZM16.56 17.254H3.441a.21.21 0 0 1-.207-.155L1.177 8.115a.179.179 0 0 1 .036-.156.213.213 0 0 1 .171-.08h3.34l-.153.352a.586.586 0 0 0 1.073.47l.359-.821h7.994l.359.82a.586.586 0 1 0 1.074-.469l-.154-.351h3.34c.093 0 .147.05.17.08a.18.18 0 0 1 .037.155l-2.057 8.984a.21.21 0 0 1-.207.155Z"/><path d="M6.484 10.419a.586.586 0 0 0-.586.586v4.297a.586.586 0 0 0 1.172 0v-4.297a.586.586 0 0 0-.586-.586Z"/><path d="M6.484 10.419a.586.586 0 0 0-.586.586v4.297a.586.586 0 0 0 1.172 0v-4.297a.586.586 0 0 0-.586-.586ZM10 10.419a.586.586 0 0 0-.586.586v4.297a.586.586 0 0 0 1.172 0v-4.297a.586.586 0 0 0-.586-.586Z"/><path d="M10 10.419a.586.586 0 0 0-.586.586v4.297a.586.586 0 0 0 1.172 0v-4.297a.586.586 0 0 0-.586-.586ZM13.516 10.419a.586.586 0 0 0-.586.586v4.297a.586.586 0 1 0 1.172 0v-4.297a.586.586 0 0 0-.586-.586Z"/><path d="M13.516 10.419a.586.586 0 0 0-.586.586v4.297a.586.586 0 1 0 1.172 0v-4.297a.586.586 0 0 0-.586-.586Z"/></g><defs><clipPath id="fa"><path d="M0 0h20v20H0z"/></clipPath></defs></svg><svg viewBox="0 0 24 24" id="icon-cart-filled" xmlns="http://www.w3.org/2000/svg"><path d="M2.084 2.751a.75.75 0 0 1 .956-.459l.302.106c.616.217 1.14.401 1.552.603.44.217.819.483 1.103.899.282.412.398.865.452 1.362.024.222.037.468.043.738h10.639c1.684 0 3.201 0 3.645.577.444.577.27 1.447-.076 3.186l-.5 2.425c-.315 1.528-.473 2.293-1.025 2.742-.551.45-1.332.45-2.893.45H10.98c-2.789 0-4.183 0-5.05-.914C5.063 13.552 5 12.582 5 9.64V7.038c0-.74 0-1.235-.041-1.615-.04-.363-.11-.545-.2-.677-.088-.129-.221-.25-.525-.398-.322-.158-.761-.314-1.429-.549l-.261-.091a.75.75 0 0 1-.459-.957ZM7.5 18a1.5 1.5 0 1 1 0 3 1.5 1.5 0 0 1 0-3ZM16.5 18a1.5 1.5 0 1 1 0 3 1.5 1.5 0 0 1 0-3Z"/></svg><svg viewBox="0 0 29 29" id="icon-close" xmlns="http://www.w3.org/2000/svg"><path d="M21.586 7.444 7.444 21.586l-.745-.745L20.842 6.7z"/><path d="M20.507 21.92 6.365 7.779l.707-.707 14.142 14.142z"/></svg><svg viewBox="0 0 20 20" id="icon-compare" xmlns="http://www.w3.org/2000/svg"><mask id="ia"><path d="M19.414 11.266h-.637L16.735 6.32a.586.586 0 0 0-.08-1.169h-5.037A1.737 1.737 0 0 0 9.986 4c-.751 0-1.392.48-1.633 1.15H3.345a.587.587 0 0 0-.08 1.169l-2.042 4.947H.586a.586.586 0 0 0-.586.587A4.147 4.147 0 0 0 4.139 16a4.147 4.147 0 0 0 4.139-4.147.586.586 0 0 0-.586-.587h-.638L5.015 6.325h3.338c.241.67.882 1.15 1.633 1.15.75 0 1.39-.48 1.632-1.15h3.367l-2.04 4.941h-.637a.586.586 0 0 0-.586.587A4.147 4.147 0 0 0 15.862 16 4.147 4.147 0 0 0 20 11.853a.586.586 0 0 0-.586-.587ZM4.14 14.826A2.973 2.973 0 0 1 1.23 12.44h5.818a2.973 2.973 0 0 1-2.91 2.386Zm1.647-3.56H2.492l1.647-3.992 1.647 3.992Zm4.2-4.965a.564.564 0 1 1 .002-1.127.564.564 0 0 1-.002 1.127Zm5.875.973 1.648 3.992h-3.295l1.647-3.992Zm0 7.552a2.973 2.973 0 0 1-2.909-2.386h5.818a2.973 2.973 0 0 1-2.909 2.386Z"/></mask><path d="M19.414 11.266h-.637L16.735 6.32a.586.586 0 0 0-.08-1.169h-5.037A1.737 1.737 0 0 0 9.986 4c-.751 0-1.392.48-1.633 1.15H3.345a.587.587 0 0 0-.08 1.169l-2.042 4.947H.586a.586.586 0 0 0-.586.587A4.147 4.147 0 0 0 4.139 16a4.147 4.147 0 0 0 4.139-4.147.586.586 0 0 0-.586-.587h-.638L5.015 6.325h3.338c.241.67.882 1.15 1.633 1.15.75 0 1.39-.48 1.632-1.15h3.367l-2.04 4.941h-.637a.586.586 0 0 0-.586.587A4.147 4.147 0 0 0 15.862 16 4.147 4.147 0 0 0 20 11.853a.586.586 0 0 0-.586-.587ZM4.14 14.826A2.973 2.973 0 0 1 1.23 12.44h5.818a2.973 2.973 0 0 1-2.91 2.386Zm1.647-3.56H2.492l1.647-3.992 1.647 3.992Zm4.2-4.965a.564.564 0 1 1 .002-1.127.564.564 0 0 1-.002 1.127Zm5.875.973 1.648 3.992h-3.295l1.647-3.992Zm0 7.552a2.973 2.973 0 0 1-2.909-2.386h5.818a2.973 2.973 0 0 1-2.909 2.386Z" mask="url(#ia)"/></svg><svg viewBox="0 0 25 25" id="icon-delivery" xmlns="http://www.w3.org/2000/svg"><g fill-rule="evenodd" clip-rule="evenodd" clip-path="url(#ja)"><path d="M18.402 6.5V.732A.732.732 0 0 0 17.67 0h-4.945v5.568c0 .526-.56.931-1.11.628l-2.39-1.21-2.44 1.234a.732.732 0 0 1-1.06-.652V0H.778a.732.732 0 0 0-.732.732v16.891c0 .405.328.733.732.733h9.548C9.88 17.17 9.61 15.99 9.61 14.94c0-4.796 3.989-8.634 8.792-8.441Z"/><path d="m9.553 3.514 1.707.865V0H7.188v4.379l1.705-.864a.73.73 0 0 1 .66 0ZM18.058 7.957a6.984 6.984 0 0 0-6.984 6.984c0 1.843 1.043 4.274 2.374 6.26C14.878 23.334 16.71 25 18.058 25c1.348 0 3.179-1.666 4.61-3.8 1.33-1.985 2.373-4.416 2.373-6.26a6.984 6.984 0 0 0-6.983-6.983Zm0 9.672a2.688 2.688 0 1 1 0-5.376 2.688 2.688 0 0 1 0 5.376Z"/><path d="M19.282 14.94a1.223 1.223 0 1 1-2.446 0 1.223 1.223 0 0 1 2.446 0Z"/></g><defs><clipPath id="ja"><path d="M0 0h25v25H0z"/></clipPath></defs></svg><svg viewBox="0 0 25 25" id="icon-guarantee" xmlns="http://www.w3.org/2000/svg"><g clip-path="url(#ka)"><path d="m25 12.514-2.14-2.787.479-3.463-3.266-1.295-1.295-3.266-3.463.479L12.5.014l-2.787 2.14-3.463-.479-1.295 3.266-3.266 1.295.479 3.463L0 12.514l2.14 2.787-.479 3.463 3.266 1.295 1.295 3.266 3.463-.479 2.787 2.14 2.787-2.14 3.463.479 1.295-3.266 3.266-1.323-.479-3.463L25 12.514Zm-13.514 4.054L7.32 13.133l.9-1.097 3.098 2.533L16.61 8.46l1.07.93-6.194 7.178Z"/></g><defs><clipPath id="ka"><path d="M0 0h25v25H0z"/></clipPath></defs></svg><svg viewBox="0 0 24 24" id="icon-heart-empty" xmlns="http://www.w3.org/2000/svg"><path d="m8.962 18.91.464-.588-.464.589ZM12 5.5l-.54.52a.75.75 0 0 0 1.08 0L12 5.5Zm3.038 13.41.465.59-.465-.59Zm-5.612-.588C7.91 17.127 6.253 15.96 4.938 14.48 3.65 13.028 2.75 11.334 2.75 9.137h-1.5c0 2.666 1.11 4.7 2.567 6.339 1.43 1.61 3.254 2.9 4.68 4.024l.93-1.178ZM2.75 9.137c0-2.15 1.215-3.954 2.874-4.713 1.612-.737 3.778-.541 5.836 1.597l1.08-1.04C10.1 2.444 7.264 2.025 5 3.06 2.786 4.073 1.25 6.425 1.25 9.137h1.5ZM8.497 19.5c.513.404 1.063.834 1.62 1.16.557.325 1.193.59 1.883.59v-1.5c-.31 0-.674-.12-1.126-.385-.453-.264-.922-.628-1.448-1.043L8.497 19.5Zm7.006 0c1.426-1.125 3.25-2.413 4.68-4.024 1.457-1.64 2.567-3.673 2.567-6.339h-1.5c0 2.197-.9 3.891-2.188 5.343-1.315 1.48-2.972 2.647-4.488 3.842l.929 1.178ZM22.75 9.137c0-2.712-1.535-5.064-3.75-6.077-2.264-1.035-5.098-.616-7.54 1.92l1.08 1.04c2.058-2.137 4.224-2.333 5.836-1.596 1.659.759 2.874 2.562 2.874 4.713h1.5Zm-8.176 9.185c-.526.415-.995.779-1.448 1.043-.452.264-.816.385-1.126.385v1.5c.69 0 1.326-.265 1.883-.59.558-.326 1.107-.756 1.62-1.16l-.929-1.178Z"/></svg><svg viewBox="0 0 24 24" id="icon-heart-filled" xmlns="http://www.w3.org/2000/svg"><path d="M2 9.137C2 14 6.02 16.591 8.962 18.911 10 19.729 11 20.5 12 20.5s2-.77 3.038-1.59C17.981 16.592 22 14 22 9.138c0-4.863-5.5-8.312-10-3.636C7.5.825 2 4.274 2 9.137Z"/></svg><svg viewBox="0 0 25 25" id="icon-percentage" xmlns="http://www.w3.org/2000/svg"><g clip-path="url(#na)"><path d="M10.855 9.706c.964-1.046 1.495-2.449 1.495-3.95C12.35 2.895 10.307 0 6.402 0 4.585 0 3.052.624 1.97 1.805 1.009 2.851.48 4.254.48 5.755c0 2.86 2.035 5.756 5.922 5.756 1.825 0 3.364-.624 4.453-1.805Zm-4.453-7.03c2.14 0 3.115 1.597 3.115 3.081 0 .808-.272 1.555-.766 2.104-.55.614-1.35.938-2.314.938-2.194 0-3.193-1.597-3.193-3.08 0-1.515.977-3.043 3.158-3.043ZM20.607 2.22c-.354.007-.837.227-1.074.49L1.966 22.242c-.237.263-.07.632.284.632h2.3c.354 0 .836-.215 1.073-.479L23.08 2.867c.236-.263.22-.693-.364-.692l-2.11.045ZM18.684 13.708c-1.782 0-3.286.613-4.349 1.771-.941 1.026-1.46 2.403-1.46 3.875 0 2.806 1.995 5.646 5.81 5.646 1.79 0 3.3-.612 4.367-1.77.946-1.026 1.467-2.403 1.467-3.876 0-2.805-2.004-5.646-5.835-5.646Zm.035 8.701c-2.135 0-3.107-1.603-3.107-3.091 0-.81.271-1.56.765-2.112.55-.616 1.348-.941 2.307-.941 2.135 0 3.107 1.602 3.107 3.091 0 .81-.272 1.561-.765 2.112-.55.616-1.348.941-2.307.941Z"/></g><defs><clipPath id="na"><path d="M0 0h25v25H0z"/></clipPath></defs></svg><svg viewBox="0 0 20 20" id="icon-plus" xmlns="http://www.w3.org/2000/svg"><path d="M10 0a10 10 0 1 0 0 20 10 10 0 0 0 0-20Zm0 18a8 8 0 1 1 0-16 8 8 0 0 1 0 16Zm4-9h-3V6a1 1 0 0 0-2 0v3H6a1 1 0 0 0 0 2h3v3a1 1 0 1 0 2 0v-3h3a1 1 0 0 0 0-2Z"/></svg><svg viewBox="0 0 16 16" id="icon-search" xmlns="http://www.w3.org/2000/svg"><g clip-path="url(#pa)"><path d="m15.952 14.85-5.194-5.194A5.946 5.946 0 0 0 12 6a5.964 5.964 0 0 0-1.758-4.242A5.956 5.956 0 0 0 6 0C4.398 0 2.89.626 1.758 1.758A5.952 5.952 0 0 0 0 6c0 1.602.626 3.11 1.758 4.242A5.952 5.952 0 0 0 6 12a5.95 5.95 0 0 0 3.654-1.24l5.194 5.192a.162.162 0 0 0 .179.036.162.162 0 0 0 .053-.036l.872-.87a.162.162 0 0 0 .036-.179.163.163 0 0 0-.036-.053ZM9.168 9.168A4.456 4.456 0 0 1 6 10.48a4.456 4.456 0 0 1-3.168-1.312A4.456 4.456 0 0 1 1.52 6c0-1.196.466-2.322 1.312-3.168A4.456 4.456 0 0 1 6 1.52c1.196 0 2.322.464 3.168 1.312A4.456 4.456 0 0 1 10.48 6a4.452 4.452 0 0 1-1.312 3.168Z"/></g><defs><clipPath id="pa"><path d="M0 0h16v16H0z"/></clipPath></defs></svg><svg viewBox="0 0 16 14" id="icon-telegram" xmlns="http://www.w3.org/2000/svg"><path d="m6.278 9.121-.265 3.723c.38 0 .543-.163.74-.358l1.775-1.697 3.679 2.694c.675.376 1.15.178 1.332-.62l2.415-11.315C16.168.55 15.594.16 14.936.403L.743 5.838C-.226 6.214-.211 6.754.578 7l3.629 1.129 8.428-5.274c.397-.263.758-.118.461.145L6.278 9.121Z"/></svg><svg viewBox="0 0 12 12" id="icon-viber" xmlns="http://www.w3.org/2000/svg"><path d="M11.496 4.235c0-1.127-.442-2.19-1.244-2.991A4.205 4.205 0 0 0 7.26 0H4.75C3.625 0 2.562.442 1.76 1.244A4.205 4.205 0 0 0 .515 4.235v1.973c0 .873.266 1.712.77 2.428a4.25 4.25 0 0 0 1.738 1.437v1.133c0 .586.328.794.61.794.2 0 .4-.1.596-.294l1.262-1.263h1.769c1.127 0 2.189-.441 2.991-1.244a4.205 4.205 0 0 0 1.244-2.991V4.235ZM8.272 7.58l-.932.932a1.284 1.284 0 0 1-.914.377c-.346 0-.671-.134-.915-.377L2.583 5.58a1.295 1.295 0 0 1 0-1.828l.932-.932a.351.351 0 0 1 .497 0l1.331 1.331a.351.351 0 0 1 0 .498l-.284.284 1.1 1.1.284-.284a.352.352 0 0 1 .498 0l1.331 1.331a.351.351 0 0 1 0 .498ZM5.739 3.413c0-.194.158-.352.352-.352 1.218 0 2.21.991 2.21 2.21a.352.352 0 1 1-.704 0c0-.83-.676-1.506-1.506-1.506a.352.352 0 0 1-.352-.352Zm3.716 2.21a.352.352 0 0 1-.352-.352c0-.805-.313-1.561-.882-2.13a2.993 2.993 0 0 0-2.13-.883.352.352 0 0 1 0-.703c.992 0 1.925.387 2.627 1.088a3.69 3.69 0 0 1 1.088 2.628.352.352 0 0 1-.351.351Z"/></svg><svg viewBox="0 0 25 25" id="icon-wallet" xmlns="http://www.w3.org/2000/svg"><g clip-path="url(#sa)"><path d="M20.313 16.667a4.693 4.693 0 0 1-4.688-4.688 4.693 4.693 0 0 1 4.688-4.687h2.604V5.99a2.867 2.867 0 0 0-2.865-2.865H2.865A2.867 2.867 0 0 0 0 5.99v13.02a2.867 2.867 0 0 0 2.865 2.865h17.187a2.867 2.867 0 0 0 2.865-2.865v-2.343h-2.605Z"/><path d="M24.219 8.854h-3.907a3.129 3.129 0 0 0-3.125 3.125 3.129 3.129 0 0 0 3.125 3.125h3.907c.431 0 .781-.35.781-.781V9.635a.782.782 0 0 0-.781-.78Zm-3.907 4.167a1.042 1.042 0 1 1 .001-2.084 1.042 1.042 0 0 1 0 2.084Z"/></g><defs><clipPath id="sa"><path d="M0 0h25v25H0z"/></clipPath></defs></svg><svg viewBox="0 0 16 16" id="icon-whatsapp" xmlns="http://www.w3.org/2000/svg"><path d="M0 0h16v16H0z"/><g clip-path="url(#ta)"><path d="M-1228-10307H212V38h-1440z"/><path d="M-1228-547H212V38h-1440z"/><g clip-path="url(#tb)"><path d="M7.996.005a7.995 7.995 0 0 0-6.73 12.31L.022 15.542a.333.333 0 0 0 .423.434l3.332-1.19A7.995 7.995 0 1 0 7.996.006Z"/><path d="M11.806 9.366s-.817-.4-1.328-.666c-.578-.298-1.258.26-1.577.577a4.01 4.01 0 0 1-1.338-.849 4.006 4.006 0 0 1-.848-1.337c.317-.32.873-1 .577-1.578a117.14 117.14 0 0 1-.667-1.328.333.333 0 0 0-.297-.183h-.666A2.007 2.007 0 0 0 3.996 6c0 1.046 1.252 3.055 2.096 3.9.844.845 2.854 2.096 3.9 2.096a2.008 2.008 0 0 0 2-1.665v-.667a.333.333 0 0 0-.187-.299Z"/></g></g><defs><clipPath id="ta"><path transform="translate(-1228 -10307)" d="M0 0h1440v10345H0z"/></clipPath><clipPath id="tb"><path d="M0 0h16v16H0z"/></clipPath></defs></svg><svg viewBox="0 0 13 13" id="whatsapp" xmlns="http://www.w3.org/2000/svg"><g clip-path="url(#ua)"><path d="M6.497.504A5.996 5.996 0 0 0 1.45 9.736l-.933 2.421a.25.25 0 0 0 .317.325l2.499-.892A5.996 5.996 0 1 0 6.497.504Z"/><path d="M9.357 7.525s-.612-.3-.995-.5c-.434-.224-.944.195-1.184.433a3.007 3.007 0 0 1-1.003-.637 3.004 3.004 0 0 1-.636-1.003c.238-.24.655-.75.433-1.183-.198-.384-.5-.996-.5-.996a.25.25 0 0 0-.223-.138h-.5a1.506 1.506 0 0 0-1.249 1.5c0 .784.939 2.291 1.572 2.925.633.633 2.14 1.572 2.925 1.572a1.506 1.506 0 0 0 1.5-1.25V7.75a.25.25 0 0 0-.14-.224Z"/></g><defs><clipPath id="ua"><path transform="translate(.5 .5)" d="M0 0h12v12H0z"/></clipPath></defs></svg><svg viewBox="0 0 19 19" id="whatsapp1" xmlns="http://www.w3.org/2000/svg"><g clip-path="url(#va)"><path d="M9.495.506a8.995 8.995 0 0 0-7.57 13.849l-1.4 3.63a.375.375 0 0 0 .476.489l3.748-1.338A8.995 8.995 0 1 0 9.495.506Z"/><path d="M13.782 11.037s-.918-.45-1.493-.75c-.651-.335-1.415.292-1.775.65a4.51 4.51 0 0 1-1.505-.956 4.507 4.507 0 0 1-.955-1.504c.357-.36.983-1.124.65-1.775-.297-.576-.75-1.494-.75-1.494a.375.375 0 0 0-.334-.206h-.75A2.258 2.258 0 0 0 4.996 7.25c0 1.176 1.409 3.437 2.358 4.388.95.95 3.21 2.358 4.388 2.358a2.258 2.258 0 0 0 2.249-1.874v-.75a.375.375 0 0 0-.21-.336Z"/></g><defs><clipPath id="va"><path transform="translate(.5 .5)" d="M0 0h18v18H0z"/></clipPath></defs></svg></svg>