<?xml version="1.0" encoding="utf-8"?><svg viewBox="0 0 800 800" xmlns="http://www.w3.org/2000/svg" xmlns:xlink="http://www.w3.org/1999/xlink"><style>:root>svg{display:none}:root>svg:target{display:block}</style><svg viewBox="0 0 24 24" id="arrow-up" xmlns="http://www.w3.org/2000/svg"><path fill-rule="evenodd" d="m4.387 10.79-.094-.083a1 1 0 0 1-.083-1.32l.083-.094 7-7 .044-.042.068-.055.11-.071.114-.054.105-.035.148-.03L12 2l.075.003.126.017.111.03.111.044.098.052.104.074.082.073 7 7a1 1 0 0 1-1.32 1.497l-.094-.083L13 5.416V21a1 1 0 0 1-2 0V5.414l-5.293 5.293a1 1 0 0 1-1.32.083l-.094-.083.094.083Z"/></svg><svg viewBox="0 0 7 12" id="chevron-forward" xmlns="http://www.w3.org/2000/svg"><path d="M1 1.5 5.5 6 1 10.5"/></svg><svg viewBox="-0.5 0 7 7" id="play-icon" xmlns="http://www.w3.org/2000/svg"><path d="M5.495 2.573 1.5.143C.832-.266 0 .25 0 1.068V5.93c0 .82.832 1.333 1.5.927l3.995-2.43c.673-.41.673-1.445 0-1.855" fill-rule="evenodd"/></svg></svg>