<svg width="16" height="16" viewBox="0 0 16 16" fill="none" xmlns="http://www.w3.org/2000/svg">
<g clip-path="url(#clip0_234_3861)">
<path d="M14.1912 0.500488H1.80963C0.811596 0.500488 0 1.31182 0 2.31103V13.6905C0 14.6885 0.811596 15.499 1.80963 15.499H14.1912C15.1892 15.499 15.9999 14.6885 15.9999 13.6905V2.31103C16 1.31182 15.1893 0.500488 14.1912 0.500488ZM10.3464 3.19311C11.3116 3.19311 12.0943 3.97589 12.0943 4.94099C12.0943 5.90609 11.3115 6.68887 10.3464 6.68887C9.38099 6.68887 8.59853 5.90609 8.59853 4.94099C8.59853 3.97589 9.38099 3.19311 10.3464 3.19311ZM13.6237 13.8262H7.99984H2.62653C2.1438 13.8262 1.92881 13.4769 2.14642 13.046L5.1461 7.10461C5.36345 6.67377 5.77769 6.63531 6.07103 7.01864L9.08732 10.9604C9.38067 11.3438 9.8934 11.3764 10.2328 11.033L10.9707 10.2858C11.3097 9.94227 11.8094 9.9848 12.0861 10.3801L13.9969 13.1095C14.2731 13.5054 14.1064 13.8262 13.6237 13.8262Z" fill="#6F73EE"/>
</g>
<defs>
<clipPath id="clip0_234_3861">
<rect width="16" height="16" fill="white"/>
</clipPath>
</defs>
</svg>
