<svg width="20" height="18" viewBox="0 0 20 18" fill="none" xmlns="http://www.w3.org/2000/svg">
<path d="M19.1523 6.25427H15.0031L12.6756 0.924855C12.5462 0.628332 12.2008 0.492824 11.9042 0.622395C11.6076 0.751887 11.4722 1.09732 11.6017 1.39388L13.7244 6.25431H6.27564L8.3983 1.39388C8.52779 1.09732 8.3924 0.751926 8.09584 0.622395C7.79932 0.492824 7.45385 0.628254 7.32439 0.924855L4.99689 6.25427H0.847715C0.304942 6.25427 -0.0978707 6.74564 0.0208793 7.26286L2.20584 16.7797C2.2926 17.1576 2.63611 17.4261 3.03268 17.4261H16.9674C17.3639 17.4261 17.7074 17.1576 17.7942 16.7797L19.9792 7.26286C20.0979 6.74568 19.6951 6.25427 19.1523 6.25427ZM5.10713 8.0513C5.02885 8.0513 4.94928 8.03552 4.87291 8.00216C4.57635 7.87267 4.44092 7.52728 4.57045 7.23068L5.01061 6.22278H6.28936L5.64436 7.69966C5.54822 7.91993 5.33299 8.0513 5.10713 8.0513ZM7.07033 14.3011C7.07033 14.6247 6.80799 14.8871 6.48439 14.8871C6.1608 14.8871 5.89846 14.6247 5.89846 14.3011V10.0043C5.89846 9.68068 6.1608 9.41833 6.48439 9.41833C6.80799 9.41833 7.07033 9.68068 7.07033 10.0043V14.3011ZM10.586 14.3011C10.586 14.6247 10.3236 14.8871 10 14.8871C9.67643 14.8871 9.41408 14.6247 9.41408 14.3011V10.0043C9.41408 9.68068 9.67643 9.41833 10 9.41833C10.3236 9.41833 10.586 9.68068 10.586 10.0043V14.3011ZM14.1016 14.3011C14.1016 14.6247 13.8392 14.8871 13.5156 14.8871C13.1921 14.8871 12.9297 14.6247 12.9297 14.3011V10.0043C12.9297 9.68068 13.1921 9.41833 13.5156 9.41833C13.8392 9.41833 14.1016 9.68068 14.1016 10.0043V14.3011ZM15.1271 8.00216C15.0508 8.03552 14.9712 8.0513 14.8929 8.0513C14.6671 8.0513 14.4518 7.91997 14.3556 7.6997L13.7106 6.22282H14.9894L15.4296 7.23071C15.5591 7.52728 15.4237 7.87267 15.1271 8.00216Z" fill="#6F73EE"/>
</svg>
