<svg width="13" height="12" viewBox="0 0 13 12" fill="none" xmlns="http://www.w3.org/2000/svg">
<rect width="13" height="12" fill="#E8E8E8"/>
<g id="&#208;&#154;&#208;&#189;&#208;&#190;&#208;&#191;&#208;&#186;&#208;&#184;" clip-path="url(#clip0_176_9)">
<rect width="6018" height="416" transform="translate(-1906 -181)" fill="white"/>
<g id="Frame 1719">
<g id="003-whatsapp 1" clip-path="url(#clip1_176_9)">
<path id="Vector" d="M6.49679 0.00390913C3.18503 0.00461184 0.500895 2.6899 0.501597 6.00165C0.501832 7.1484 0.83091 8.27103 1.44976 9.23645L0.516823 11.657C0.467141 11.7858 0.531228 11.9304 0.659965 11.9801C0.688752 11.9912 0.71932 11.9969 0.750169 11.9968C0.778793 11.997 0.807206 11.9921 0.834119 11.9823L3.33265 11.0904C6.14377 12.8412 9.84194 11.9816 11.5927 9.17045C13.3435 6.35931 12.4839 2.66116 9.6728 0.910381C8.71988 0.316872 7.61946 0.00280822 6.49679 0.00390913Z" fill="#4CAF50"/>
<path id="Vector_2" d="M9.35709 7.02457C9.35709 7.02457 8.74496 6.72475 8.36168 6.52487C7.92795 6.3015 7.41825 6.71976 7.17839 6.95762C6.80509 6.81422 6.46413 6.59779 6.17548 6.32099C5.89864 6.03239 5.6822 5.69144 5.53885 5.31809C5.77672 5.07774 6.19396 4.56853 5.9716 4.13479C5.77421 3.75102 5.47191 3.13889 5.47191 3.13889C5.42949 3.05471 5.34331 3.00156 5.24903 3.00146H4.74933C4.02161 3.12716 3.49249 3.76212 3.50008 4.50058C3.50008 5.28511 4.43902 6.79223 5.07216 7.42584C5.7053 8.05945 7.2124 8.99792 7.99742 8.99792C8.73587 9.00551 9.37084 8.47637 9.49653 7.74866V7.24897C9.4966 7.15368 9.44254 7.06666 9.35709 7.02457Z" fill="#F7F7F7"/>
</g>
</g>
</g>
<defs>
<clipPath id="clip0_176_9">
<rect width="6018" height="416" fill="white" transform="translate(-1906 -181)"/>
</clipPath>
<clipPath id="clip1_176_9">
<rect width="12" height="12" fill="white" transform="translate(0.5)"/>
</clipPath>
</defs>
</svg>
